/* XPM */
static char *icedove[] = {
/* columns rows colors chars-per-pixel */
"32 32 176 2",
"   c #3A4C65",
".  c #434575",
"X  c #454A74",
"o  c #4B467D",
"O  c #4C4A7B",
"+  c #534486",
"@  c #554B8B",
"#  c #4D5789",
"$  c #51568D",
"%  c #5C4E94",
"&  c #575694",
"*  c #5C5294",
"=  c #565C92",
"-  c #5C599B",
";  c #605794",
":  c #61529C",
">  c #536691",
",  c #5C639C",
"<  c #5F7398",
"1  c #6653A1",
"2  c #6558A6",
"3  c #6A5DA3",
"4  c #6C5BAB",
"5  c #5C66A2",
"6  c #6D60A5",
"7  c #7360B1",
"8  c #786BB3",
"9  c #7765B9",
"0  c #7A6BBC",
"q  c #757ABD",
"w  c #777BC3",
"e  c #8174C6",
"r  c #8877C6",
"t  c #837BC6",
"y  c #8577C8",
"u  c #877BCA",
"i  c #7C8F90",
"p  c #5686BD",
"a  c #748BAE",
"s  c #6C81B4",
"d  c #628ABC",
"f  c #698FBF",
"g  c #7888B4",
"h  c #7093BF",
"j  c #789DBC",
"k  c #7DA4BB",
"l  c #5D8DC2",
"z  c #7C8BCA",
"x  c #6391C5",
"c  c #6D92C0",
"v  c #6795C8",
"b  c #6997C9",
"n  c #6E9BCC",
"m  c #7396C2",
"M  c #7799C4",
"N  c #7B9CC5",
"B  c #729FCF",
"V  c #7FA0C3",
"C  c #74A0CF",
"Z  c #7CA3CF",
"A  c #74A0D0",
"S  c #7BA5D1",
"D  c #9AA79D",
"F  c #8290BC",
"G  c #879BBE",
"H  c #95A3A9",
"J  c #9FB0AC",
"K  c #A4B1B4",
"L  c #AAB1B7",
"P  c #B6B7B2",
"I  c #B7B8B2",
"U  c #B9BAB6",
"Y  c #C0C2BC",
"T  c #8A87CF",
"R  c #8B8BCE",
"E  c #9086CE",
"W  c #8995C6",
"Q  c #8991CE",
"!  c #809FCD",
"~  c #8A8CD1",
"^  c #9288D0",
"/  c #988DD2",
"(  c #8D9AD2",
")  c #9095D3",
"_  c #959AD4",
"`  c #999AD6",
"'  c #9E9DD8",
"]  c #82A1C6",
"[  c #86A4CA",
"{  c #89A5CA",
"}  c #92ADCF",
"|  c #9EB8C7",
" . c #80A6D0",
".. c #82AAD4",
"X. c #89ADD6",
"o. c #93A4D4",
"O. c #92ADD6",
"+. c #9CAED9",
"@. c #8EB1D7",
"#. c #8FB3D8",
"$. c #96B1D1",
"%. c #98B1D1",
"&. c #95B7DA",
"*. c #9AB4D8",
"=. c #9CBBDC",
"-. c #A1B3CE",
";. c #A3BACD",
":. c #A0A0D9",
">. c #A0ADDA",
",. c #A3BAD6",
"<. c #A4B1DC",
"1. c #A8B7D9",
"2. c #A4BEDC",
"3. c #A9BCDC",
"4. c #BFC4C0",
"5. c #A5C1DF",
"6. c #ABC3DF",
"7. c #B2CDD5",
"8. c #B2CAD9",
"9. c #BDCFDE",
"0. c #B6D1D9",
"q. c #A3C0E0",
"w. c #ABC5E1",
"e. c #B3CAE4",
"r. c #BCCEE4",
"t. c #BED2E9",
"y. c #C9CBC6",
"u. c #CDCEC9",
"i. c #D1D2CD",
"p. c #CBD1D7",
"a. c #C1DBD1",
"s. c #C2D0DF",
"d. c #C6D9DD",
"f. c #D5D7D2",
"g. c #D7D8D4",
"h. c #D9DAD6",
"j. c #D3D7D8",
"k. c #D6DADB",
"l. c #DCDEDB",
"z. c #C5E5CD",
"x. c #C5E2D0",
"c. c #CDE9D3",
"v. c #CDE4DB",
"b. c #DEE1DC",
"n. c #C5D2E2",
"m. c #C8D5E5",
"M. c #C4D5E9",
"N. c #C5D8EB",
"B. c #CDDBEC",
"V. c #D5DEE0",
"C. c #D8DEE4",
"Z. c #D1DDEB",
"A. c #DDE1E3",
"S. c #D6E8E0",
"D. c #D6E2ED",
"F. c #DDE4EA",
"G. c #DBE9ED",
"H. c #DBE5F1",
"J. c #E3E5E5",
"K. c #E2E7EB",
"L. c #E5E9EB",
"P. c #EBEDED",
"I. c #E5F5E7",
"U. c #E5F4E8",
"Y. c #ECF3ED",
"T. c #E2EAF3",
"R. c #EBEEF2",
"E. c #E7F0F3",
"W. c #EEF2F3",
"Q. c #EDF3F9",
"!. c #F3F4F5",
"~. c #F3F9F5",
"^. c #F1F6FA",
"/. c #F6F9FC",
"(. c #FDFEFE",
"). c None",
/* pixels */
").).).).).).).).).).).).).).).).).).).).).).).).).).).).).).).).",
").).).h.).g.).h.).).).).g.).h.).h.).h.).h.).h.).h.).g.).g.).).).",
").).g.!.P.W.K.P.L.R.L.T.P.L.R.L.W.L.W.K.!.J.!.K.R.L.R.Y.!.P.).).",
").).i.!.Z.[ M M M M M M M M N N N N N N N M N N N N N } R.J.).).",
").).g.P.m p n b v b b b v v v v b b b b b x x v v b v p } P.).).",
").).f.F.p B B B B B A B A A A B B B B B n [ e.Z n B B v N l.).).",
").).h.K.d b B B B B B B A B A B B B B B B S T.T.X.b n b M J.).).",
").).f.A.d B B B B B B B B B A A B B B B B n w.(.G.%.=.x N A.).).",
").).g.F.d n C C A B A A A A A A A A A A A A S R.(.B.T.[ M J.).).",
").).g.F.d B S S S S S S S S S S S S S S S S C t.(.Q.Q.e.M A.).).",
").).f.K.f S ..S ......S S ..................S =./.(.(.B.] A.).).",
").).i.F.x S X.X.X.X.X.X.X.X.X.X.X.X.X.X.#.X.X.$.Q.(.(.T.{ A.).).",
").).u.F.f X.#.#.#.#.#.#.#.#.#.#.#.#.#.#.X.X.o.! H.(.(.T.{ A.).).",
").).u.F.f X.&.&.&.&.&.&.&.&.&.&.&.O.o.( Q ~ ~ z Z.(.(.T.{ C.).).",
").).Y A.c &.=.=.=.=.=.=.=.=.=.&.o.) T t e e e w B.(.(.T.{ l.).).",
").).y.F.c =.5.2.q.q.q.q.q.q.*._ R u 0 0 0 9 9 q H.(.(.T.{ A.).).",
").).P F.c =.w.w.w.w.w.6.2.>.` E 8 3 7 7 4 2 2 W /.(.(.T.[ j.).).",
").).y.F.m 5.e.e.w.e.e.6.<.' ^ r * O 1 : % @ , n.(.(.(.T.[ J.).).",
").).I F.m w.e.r.r.e.6.<.:./ y 7 % o X + o # -.(.(.(.(.T.[ j.).).",
").).u.K.M e.t.t.w.=.6.3._ T 6 O + X   . > ;./.(.(.(.(.T.{ J.).).",
").).P C.m r.N.e.5.T.(.(.Q.1.= X @ @ . < 9.(.(.(.(.(.(.T.{ j.).).",
").).f.K.N M.N.2.K J /.(.S.b.F % * $ a D.(.(./.(.(.(.(.T.[ J.).).",
").).U C.M M.t.t.4.H W.^.i D ;.- & G E.(.(.~.~.(.(.(.T.0.N j.).).",
").).g.K.h ,.2.D.(.R.L p.F.b.;.= g T.(.(.Y.Y.(.(.(.(.G.7.] J.).).",
").).).C.N 8.$.E.(.(.k.R.(.I.| , 9.(.(.U.U.(.(.(.(.(.(.H.[ k.).).",
").).h.L.] S.v.^.(.(.(.(./.I.;.s R.(.~.z.~.(.(.(.(.(./.B.[ K.).).",
").).).C.] c.v.R.(.(.(.(.(.~.d.{ ^.(.~.c./.(.(.(.(.Q.Q.H.{ k.).).",
").).h.T.V 0.x.G.(.(.(.(.(./.~.D.Q.(.(./.(.(.Q.R.R.Q.(.B.{ P.).).",
").).).P.,.j k ] %.%.%.%.%.%.%.O.} O.%.%.%.%.} } %.%.%.! r.J.).).",
").).h./.^.C.n.m.n.s.n.n.m.s.m.s.m.s.m.s.m.s.m.s.m.s.n.F./.P.).).",
").).).l.f.b.h.b.l.l.h.g.h.u.h.u.l.y.l.y.b.u.b.i.l.h.b.h.l.h.).).",
").).).).).).).).).).).).).).).).).).).).).).).).).).).).).).).)."
};
