/* XPM */
static char *messengerWindow__[] = {
/* columns rows colors chars-per-pixel */
"16 16 163 2",
"   c #44F647F77715",
".  c #501C49098226",
"X  c #534E4FBF8B1A",
"o  c #5F1752A09C6C",
"O  c #660C67D99B59",
"+  c #677757C6A366",
"@  c #69155DC1A158",
"#  c #6DF96236A6F1",
"$  c #6F067802A0E7",
"%  c #7D296F95C1A2",
"&  c #808F7C7DC43C",
"*  c #81C678CDC4AE",
"=  c #67E894F7C79E",
"-  c #6AE1984DCA45",
";  c #6AF698D3CB08",
":  c #6C5699C1CB81",
">  c #73D69BBDC9BF",
",  c #71A69C11CB4A",
"<  c #777D9D9DCA0D",
"1  c #76DF9DCECAB0",
"2  c #729B9FDAD00C",
"3  c #76639F74CCFA",
"4  c #75FDA1AAD04C",
"5  c #7E7EA30BCD30",
"6  c #76DFA2B4D15F",
"7  c #77C1A319D166",
"8  c #77EAA329D16E",
"9  c #79F7A3C1D10A",
"0  c #7862A392D177",
"q  c #82658EFDADC6",
"w  c #80B78A8AB344",
"e  c #91EA9984BFD6",
"r  c #8F9D8797CDAB",
"t  c #8CF78F5FCECC",
"y  c #8D2E9030C06F",
"u  c #8AF49C6FD261",
"i  c #8BE79D6ED29F",
"p  c #99C59A78D412",
"a  c #8144A6BAD020",
"s  c #866FA888D011",
"d  c #9121A54EC215",
"f  c #8E54A6CFD57E",
"g  c #84A6ABE8D5AC",
"h  c #84C4AC53D5C3",
"j  c #8564AC8AD614",
"k  c #8604AD44D649",
"l  c #8E82ADFFD2DC",
"z  c #98F9AC4AD8C1",
"x  c #965BB368D581",
"c  c #9E81B7DFD638",
"v  c #9E73B8EFD84E",
"b  c #91C8B15BD89B",
"n  c #925AB554DA59",
"m  c #9313B5BCDA49",
"M  c #91E0B508DA77",
"N  c #92AFB592DA75",
"B  c #94C5B596D965",
"V  c #9F63BCF7DE37",
"C  c #9FE2BE90DF2B",
"Z  c #A2D9AE34DC2C",
"A  c #A30FB8EDD166",
"S  c #A6E1BB12D225",
"D  c #AC5FBFC2D0A2",
"F  c #AA4CBEC3D69B",
"G  c #AADBBF43D6DF",
"H  c #ABB6BFE9D751",
"J  c #ABFCC02ED7BA",
"K  c #A6CABEC1DB28",
"L  c #A3D2BFADDDC7",
"P  c #A03CBED6DF2C",
"I  c #A9A1C4C1CFC3",
"U  c #B466C44CCFB9",
"Y  c #A6DBC047D386",
"T  c #AC44C296D40A",
"R  c #AE79C108D603",
"E  c #AD13C0E7D7FD",
"W  c #ADD7C169D83C",
"Q  c #ADF6C19BD879",
"!  c #B278C2A5D443",
"~  c #B2E8C2A6D47D",
"^  c #B39AC31AD4F4",
"/  c #B278C32CD5E2",
"(  c #B261C336D691",
")  c #B4BAC43BD612",
"_  c #B5FDC59CD79D",
"`  c #B70BC693D885",
"'  c #B45AC5FCDB88",
"]  c #B6CBC7CBDC18",
"[  c #B70FC7EBDC93",
"{  c #B7D5C86ADCA6",
"}  c #B8B9C907DD1F",
"|  c #B93CC935DD6C",
" . c #B95CC991DD98",
".. c #BD3ECE03DC65",
"X. c #AB8EC49EE211",
"o. c #AD3BC66CE19D",
"O. c #ADB3C808E3C5",
"+. c #B049C306E120",
"@. c #B1DCC98BE442",
"#. c #B8B0CCD6E3C8",
"$. c #B987CDF1E42E",
"%. c #BA2BD055E818",
"&. c #C0D8CD1BCA18",
"*. c #C241CA01D136",
"=. c #C2C2CAB2D1AD",
"-. c #C383CB79D2AB",
";. c #C469CC5BD36A",
":. c #C6E1CF0FD668",
">. c #C764CF80D6DB",
",. c #C187CB20DA7B",
"<. c #CB42D316DA91",
"1. c #CB90D3D8DB4A",
"2. c #D040D6A4D8A9",
"3. c #CCB8D4F6DC78",
"4. c #CED7D641DD99",
"5. c #D453D9E8DDFF",
"6. c #D29ED97FDF1F",
"7. c #C28FD3CCE1C2",
"8. c #C6A6D365E210",
"9. c #C118D247E5CD",
"0. c #CB49DCFCE63E",
"q. c #CBD0DB8AEC5D",
"w. c #D993E00FE61C",
"e. c #D2EEDE89ED2B",
"r. c #D1B3E571E185",
"t. c #D308E245E990",
"y. c #DBE3E243EC99",
"u. c #DD2CE2AAEEF8",
"i. c #DD69E6DFF15B",
"p. c #E30CE572E580",
"a. c #E61BE7BFE64F",
"s. c #E136E574E8CC",
"d. c #E6A6F183EE2F",
"f. c #EC7CF646F00C",
"g. c #ED11F853EE85",
"h. c #E402EB27F132",
"j. c #E1E6E986F36B",
"k. c #E42AEC14F42D",
"l. c #E4C7E994F51B",
"z. c #E539EB30F5D0",
"x. c #E692ECEEF572",
"c. c #E713ED0DF5A8",
"v. c #E711EDBCF5BB",
"b. c #E835EDF2F60B",
"n. c #EB04F0DEF80E",
"m. c #EF5FF3CAF6A7",
"M. c #EEB7F4B0F5A8",
"N. c #EF8EF4FBF70F",
"B. c #ECF8F214F8AA",
"V. c #EE9CF44CF994",
"C. c #F0ADF205F33D",
"Z. c #F36AFA65F4C4",
"A. c #F729FCB7F7B0",
"S. c #F189F64CF886",
"D. c #F3D6F712FB56",
"F. c #F642F8C6FC41",
"G. c #F86AFA65FD9A",
"H. c #FC6BFE8AFCF4",
"J. c #FCA3FCE7FD6E",
"K. c #FE12FF05FF78",
"L. c #FE83FFFFFF30",
"P. c gray100",
"I. c None",
/* pixels */
"I.I.I.I.I.I.I.I.I.I.I.I.I.I.I.I.",
"I.a.8.F G G H W Q Q E J E ] s.I.",
"I.6.< ; : : : : : : , a - = R I.",
"I.3.> 2 2 2 2 2 2 2 9 q.L 3 A I.",
"I.3.1 6 7 7 8 0 0 0 4 o.V.#.S I.",
"I.1.5 g g g j j j k h B D.j.( I.",
"I.>.s M n N N m b f u i z.b._ I.",
"I.-.l C C P V z t * % & l.b.) I.",
"I.*.x O.O.X.Z r @ + o y G.c.^ I.",
"I.=.v %.@.+.p # .   $ y.P.x.~ I.",
"I.;.K $.U m.,.O X q h.L.P.k.! I.",
"I.:.c 9.2.5.&.w e S.A.H.K.0.D I.",
"I.<.Y t.J.C.f.d u.g.Z.P.P.i./ I.",
"I.4.I r.D.F.M.7.v.d.N.B.n.e.` I.",
"I.p...T } } } { ] | { ' [  .w.I.",
"I.I.I.I.I.I.I.I.I.I.I.I.I.I.I.I."
};
