/* XPM */
static char *messengerWindow[] = {
/* columns rows colors chars-per-pixel */
"32 32 176 2",
"   c #3A314C556521",
".  c #434744CF75CC",
"X  c #457F4A257481",
"o  c #4B5445E57D36",
"O  c #4CA94AC47BF6",
"+  c #532A44158671",
"@  c #55454B9E8B63",
"#  c #4D215758893B",
"$  c #517956898DC6",
"%  c #5C834E6994C1",
"&  c #56E9563D9414",
"*  c #5C9A51F79510",
"=  c #56D35BDE9300",
"-  c #5C2D58FC9BC9",
";  c #5FF5570B94D3",
":  c #616852BC9C5D",
">  c #53D366319121",
",  c #5C8262E69CFD",
"<  c #5F21735498E1",
"1  c #663B535AA1FE",
"2  c #651D585AA6B7",
"3  c #6A185D50A379",
"4  c #6C515BBDABE8",
"5  c #5C0F65F9A298",
"6  c #6D656087A5BE",
"7  c #738960DAB1BE",
"8  c #780E6B5BB372",
"9  c #774965CCBA1D",
"0  c #7A736B25BCAD",
"q  c #751A7A1BBDF2",
"w  c #77297B4BC3AA",
"e  c #81E874D6C739",
"r  c #8897777DC6F6",
"t  c #832E7BF9C701",
"y  c #85437742C90D",
"u  c #87267BEECA92",
"i  c #7C968F5490B6",
"p  c #56BC865EBD66",
"a  c #74888B6EAEC7",
"s  c #6CB08193B49A",
"d  c #62178A9DBD19",
"f  c #68EB8F6DBF75",
"g  c #78418836B507",
"h  c #6FF09371C008",
"j  c #78F19DF9BCD6",
"k  c #7D9BA48CBBB2",
"l  c #5DB38D14C2AC",
"z  c #7CE08B39CACF",
"x  c #637291FCC586",
"c  c #6D929272C105",
"v  c #672295CDC8E4",
"b  c #69029737C9D6",
"n  c #6E199B8ACCD7",
"m  c #72F89651C2B3",
"M  c #77509989C459",
"N  c #7B929CD0C623",
"B  c #72999FB8CFDB",
"V  c #7F1AA069C375",
"C  c #74E4A075CF50",
"Z  c #7C04A37ACF91",
"A  c #7467A0EDD06A",
"S  c #7B41A55AD240",
"D  c #9B06A7529DAB",
"F  c #820D902ABCB4",
"G  c #87529B75BE7A",
"H  c #95D1A3B1A931",
"J  c #9F20B11FACF9",
"K  c #A479B1A3B502",
"L  c #AAD6B1ECB768",
"P  c #B643B79BB295",
"I  c #B741B854B30D",
"U  c #B9BABAC9B644",
"Y  c #C0E6C25DBD29",
"T  c #8AF287D9D005",
"R  c #8B358B20CE90",
"E  c #901C86B4CF36",
"W  c #89DC95D5C6B9",
"Q  c #893C919FCF3D",
"!  c #80A29FE2CDCF",
"~  c #8B078CB0D210",
"^  c #92E2888AD0E0",
"/  c #98448D88D335",
"(  c #8D2A9A49D25E",
")  c #905E95A2D3EA",
"_  c #95359B01D4D9",
"`  c #99A79B1AD70A",
"'  c #9ED89D7CD935",
"]  c #8210A1FEC656",
"[  c #864AA4C1CA7E",
"{  c #8933A61ACA8B",
"}  c #924FAD4FCFC5",
"|  c #9E31B917C7AB",
" . c #808EA6F0D086",
".. c #82EDAA82D4BC",
"X. c #8983ADF1D6B9",
"o. c #9326A43ED497",
"O. c #92A3AE02D66F",
"+. c #9C31AEDED9ED",
"@. c #8EB9B157D78E",
"#. c #8F46B341D94B",
"$. c #96EDB187D24D",
"%. c #9853B17AD1F9",
"&. c #95EEB754DB0F",
"*. c #9A90B4C0D8F7",
"=. c #9C7DBB97DD12",
"-. c #A1DCB3E6CEC7",
";. c #A346BADDCD64",
":. c #A102A0DADA15",
">. c #A06AADB9DB4E",
",. c #A400BA9FD6D1",
"<. c #A480B1DFDC66",
"1. c #A863B7D7D9F5",
"2. c #A4FEBE89DC91",
"3. c #A973BCD4DC86",
"4. c #BF6EC471C11A",
"5. c #A5B7C1F4E028",
"6. c #ABEEC3A0DF9E",
"7. c #B284CE49D636",
"8. c #B259CA87D9BF",
"9. c #BDC6CF78DEE6",
"0. c #B6FAD159D988",
"q. c #A369C0E3E071",
"w. c #AB31C583E222",
"e. c #B375CB29E4A4",
"r. c #BC60CF0BE4E0",
"t. c #BEA6D33EE997",
"y. c #CA40CB54C664",
"u. c #CDACCE92C9CD",
"i. c #D1F4D321CE13",
"p. c #CB4DD177D780",
"a. c #C165DC4DD24C",
"s. c #C325D087E025",
"d. c #C65ADA23DD5D",
"f. c #D5BAD77CD348",
"g. c #D7D6D94CD4C2",
"h. c #D9F3DB2AD692",
"j. c #D3B9D7D2D8C5",
"k. c #D670DA90DB64",
"l. c #DD10DE96DBB1",
"z. c #C600E5BDCD4D",
"x. c #C573E331D0D1",
"c. c #CE1DE97BD3FF",
"v. c #CDD5E4F8DBC6",
"b. c #DEE5E25CDC5F",
"n. c #C54DD2D0E336",
"m. c #C8FFD5E4E5AF",
"M. c #C455D629E9D0",
"N. c #C62FD8D9EC19",
"B. c #CE1ADB8DEC73",
"V. c #D5F1DEC5E157",
"C. c #D8F0DF1FE4E8",
"Z. c #D1C5DDF5EC1F",
"A. c #DD93E1DFE39E",
"S. c #D663E8A8E112",
"D. c #D718E2EEEE29",
"F. c #DE0FE467EB3C",
"G. c #DBE7E9D9EDB7",
"H. c #DC1CE598F183",
"J. c #E36DE627E61C",
"K. c #E301E783EB75",
"L. c #E5FAE98DEC1D",
"P. c #EBA2ED74ED78",
"I. c #E654F5CAE82E",
"U. c #E647F4A2E8FB",
"Y. c #ED4DF378EE01",
"T. c #E351EB19F3DE",
"R. c #EB7BEF49F311",
"E. c #E7CBF0D4F44D",
"W. c #EE9EF275F3A6",
"Q. c #EDF9F3BEF98A",
"!. c #F3E3F52DF578",
"~. c #F3E4FA73F584",
"^. c #F267F679FAB4",
"/. c #F6DAFA4CFC8C",
"(. c #FE79FF12FF27",
"). c None",
/* pixels */
").).).).).).).).).).).).).).).).).).).).).).).).).).).).).).).).",
").).).h.).g.).g.).).).).g.).g.).g.).h.).h.).h.).g.).g.).f.).).).",
").).g.!.P.W.K.P.L.P.L.L.P.L.R.L.R.K.W.J.W.J.W.K.W.L.R.P.!.P.).).",
").).i.!.B.[ M M M M M M M N N N N N N N N N N N N N N } T.J.).).",
").).g.R.m l b b b b b b b b b b b b b b v x x x v v v p } P.).).",
").).f.F.d n A B B B B B B B B B B B B C n  .e. .n A A v N A.).).",
").).g.K.d n B B B B B B B B B B B B B B B Z T.T.X.b n v N J.).).",
").).f.F.d n B B B B B B B B B B B B B B B n 6.(.H.*.=.x N A.).).",
").).g.K.d n A A A A A A A A A A A A A A A B  .R.(.B.T.[ M J.).).",
").).f.F.d B S S S S S S S S S S S S S S S S C M.(.Q.Q.e.M A.).).",
").).f.F.d S ................................S =./.(.(.Z.] A.).).",
").).i.F.f ..X.X.X.X.X.X.X.X.X.X.X.X.X.X.X.X.X.$.Q.(.(.H.{ A.).).",
").).u.F.f X.#.#.#.#.#.#.#.#.#.#.#.#.#.@.X.X.X.! H.(.(.T.{ A.).).",
").).y.F.f @.&.&.&.&.&.&.&.&.&.&.&.O.o.( Q R ~ z Z.(.(.T.{ A.).).",
").).Y F.c &.=.=.=.=.=.=.=.=.=.*.o.) T t t y e w B.(.(.T.{ l.).).",
").).y.F.c =.q.q.q.q.q.q.5.2.+._ T u 0 0 0 9 9 q H.(.(.T.{ A.).).",
").).U A.c 2.w.w.w.w.w.w.2.>.` E 8 3 7 7 4 4 2 W /.(.(.T.{ k.).).",
").).y.K.m 5.e.e.e.e.e.w.<.' ^ r ; O 1 : % @ , n.(.(.(.T.{ A.).).",
").).P C.m w.r.r.r.e.6.<.:./ r 7 % o X o o # -./.(.(.(.T.[ j.).).",
").).u.K.m e.t.t.w.*.6.3.o.t 6 O + X   . > ;./.(.(.(.(.T.{ A.).).",
").).I C.M r.N.e.2.T.(.(.Q.1.= X @ @ . < 9./.(.(.(.(.(.T.{ j.).).",
").).i.K.M M.N.2.K J /.(.A.V.F % * $ a D.(.(.(.(.(.(.(.T.[ J.).).",
").).U C.M M.r.M.4.H ^.^.i D ;.- & G T.(.(.~.~.(.(.(.T.0.V j.).).",
").).f.K.h 2.2.D.(.R.L p.F.b.;.- g T.(.(.Y.W.(.(.(.(.G.7.] J.).).",
").).).C.N 8.$.R.(./.k.R./.I.| 5 r.(.(.U.U.(.(.(.(.(.(.H.[ k.).).",
").).h.K.] S.v.Q.(.(.(.(./.I.;.s T.(.~.z.~.(.(.(.(.(.(.B.[ K.).).",
").).).C.V v.v.E.(.(.(.(.(.~.d.{ ^.(.~.c./.(.(.(./.^.Q.D.{ k.).).",
").).h.T.N a.x.G.(.(.(.(.(.(.~.Z.Q.(.(./.(./.Q.R.R.Q.(.Z.{ L.).).",
").).).P.,.j k [ %.%.%.%.%.%.%.$.} %.%.%.%.$.} } $.%.%.] r.J.).).",
").).h./.!.Z.n.m.n.n.n.n.m.n.m.n.m.s.m.s.m.s.m.n.m.n.m.D./.Y.).).",
").).).l.f.l.h.l.h.l.h.f.h.i.h.y.l.y.l.y.l.u.b.i.b.g.b.h.l.h.).).",
").).).).).).).).).).).).).).).).).).).).).).).).).).).).).).).)."
};
