/* XPM */
static char *mozicon__[] = {
/* columns rows colors chars-per-pixel */
"48 48 255 2",
"   c #442C3E2171D3",
".  c #2FCA577D54F7",
"X  c #3AC74EC76687",
"o  c #3E4C4DA56A43",
"O  c #40DB5B3E4944",
"+  c #52F45F1358FB",
"@  c #414E436E6B30",
"#  c #3FD84F506A3C",
"$  c #415E440071C7",
"%  c #455F4A40736F",
"&  c #4BC2438D7DA6",
"*  c #45624B4E79D1",
"=  c #49A648557B39",
"-  c #43F351EC7F7F",
";  c #4B56520C7A7B",
":  c #570B755161EB",
">  c #4E2A44B080DA",
",  c #46B74CCC82D5",
"<  c #5193461C8570",
"1  c #51A1497E85D4",
"2  c #5609461B8A55",
"3  c #55454BE88B32",
"4  c #597249688DDC",
"5  c #4DF0516E8D88",
"6  c #4D5D57E68CEF",
"7  c #542E51568B22",
"8  c #58CD51118B7A",
"9  c #5CAC4E6D93A8",
"0  c #547A564E945D",
"q  c #5C18521F9548",
"w  c #52115A239237",
"e  c #5BB2543D9907",
"r  c #579459059BE5",
"t  c #57E759BE999F",
"y  c #6312529D9D06",
"u  c #4B4A61CC8BAF",
"i  c #576773119A7B",
"p  c #641C568EA18F",
"a  c #67BC586DA5F8",
"s  c #6A5C5B4FA446",
"d  c #65395C08AAAC",
"f  c #6D885C3EAC3E",
"g  c #70D85D8CAEBF",
"h  c #70D05E84B166",
"j  c #5A6C6C58A6E4",
"k  c #4A977ABFB4AD",
"l  c #532B7DBAB3D6",
"z  c #60AA6C58A9E3",
"x  c #73776247AEC7",
"c  c #647A76D6AC73",
"v  c #66787C1FAE2E",
"b  c #7572642EB664",
"n  c #7865644AB435",
"m  c #78B66A2BB809",
"M  c #769864D9B9F1",
"N  c #7800671ABBB6",
"B  c #7B906B86BE94",
"V  c #672A7B46B060",
"C  c #67BA7411BAB3",
"Z  c #6C2A7E99BC68",
"A  c #7DA3710EBF2F",
"S  c #7D916E79C292",
"D  c #6E347928C08B",
"F  c #7F3F74AEC3E6",
"G  c #818C7386BFB3",
"H  c #84A87327C4DD",
"J  c #83337BAEC6CC",
"K  c #82E2776EC8FB",
"L  c #84F07B79CB3B",
"P  c #8B0C7D47CC1A",
"I  c #7D8F91EA9BE3",
"U  c #56FD80F6B45A",
"Y  c #5CBB848CB701",
"T  c #5F168651B840",
"R  c #6AFA872AADC3",
"E  c #6D8F87AEB1E9",
"W  c #6AB88907B13D",
"Q  c #600586BEB85C",
"!  c #65D38AFCBAD9",
"~  c #720C8BBEBBEE",
"^  c #6E6C9184BF63",
"/  c #789392FBBB65",
"(  c #7B6098A9BD09",
")  c #7EE7A847BAE5",
"_  c #5F568D50C245",
"`  c #61788EDDC337",
"'  c #6EE98AF8C342",
"]  c #716F82F5C51E",
"[  c #7AA98BAEC5DB",
"{  c #6493928CC5FF",
"}  c #6B669639C687",
"|  c #6F1F9872C796",
" . c #67C39671C936",
".. c #686F96E3C9AE",
"X. c #6BDF998BCB55",
"o. c #754996B3C253",
"O. c #79E09180C3DA",
"+. c #76719945C491",
"@. c #78CF99BCC3BE",
"#. c #72A89F98CF9F",
"$. c #79019F3BCAF6",
"%. c #73DEA059D011",
"&. c #7DD1A2F6CD3F",
"*. c #7665A251D115",
"=. c #7B99A5ABD273",
"-. c #88D38E3C8B32",
";. c #86278D2391D1",
":. c #927399E09F33",
">. c #8EA9A75CA644",
",. c #82E4A8D9BC49",
"<. c #88B1AFCDBB0C",
"1. c #A8BCAB76A608",
"2. c #ABCCAE24A8EB",
"3. c #B2C3B555AFAB",
"4. c #B420B72CB18F",
"5. c #B5F4BAE9B53F",
"6. c #BA6FBC4FB707",
"7. c #BBD9BEB2B8E1",
"8. c #BFB7C198BC05",
"9. c #B608DE76BF4E",
"0. c #C1F3C3E1BE34",
"q. c #8C4A8584CE07",
"w. c #87EF8957CD97",
"e. c #89428AE0CF23",
"r. c #918384A7CEE2",
"t. c #861C9EA3C436",
"y. c #84A09928CD6C",
"u. c #8B3B9D79CE99",
"i. c #8C188AADD2EB",
"p. c #92D88BEED237",
"a. c #8BB69283D183",
"s. c #8C7F9A0ED323",
"d. c #9315959BD329",
"f. c #9AC594F5D56B",
"g. c #923A9970D422",
"h. c #A0E29C1CD8F1",
"j. c #845AA688CEF3",
"k. c #887BA521CF48",
"l. c #8B77AA00CEE1",
"z. c #9927B8A8C7D8",
"x. c #95A6B1EBCBCE",
"c. c #8190A67DD079",
"v. c #8D08A4BAD430",
"b. c #8324AAE8D536",
"n. c #8AA4AE99D68C",
"m. c #9293A23BD5AA",
"M. c #92F9AC81D49B",
"N. c #9CF6A2A9DA87",
"B. c #9BF7ADECD975",
"V. c #8CD8B0CED6DC",
"C. c #8E47B291D90F",
"Z. c #944BB23BD565",
"A. c #9CD6B667D566",
"S. c #9F79B918D7E2",
"D. c #9355B5E5DA74",
"F. c #98A4B40ED859",
"G. c #9763B87CDBC4",
"H. c #9CD8BBCADD2D",
"J. c #A6C6B409C1C5",
"K. c #B386BEC1C07C",
"L. c #A381A566DCC4",
"P. c #A5C6AB9ADD62",
"I. c #A0BCB7CBD537",
"U. c #A404BC1CD697",
"Y. c #A6A7B10CDE14",
"T. c #ADD0B813E053",
"R. c #A22BBDFEDDCF",
"E. c #AAF2BF84DA1D",
"W. c #9CF8C631C25C",
"Q. c #AB74C670D015",
"!. c #BEBDC358C667",
"~. c #ADA5C73CD24D",
"^. c #AC7ACBF6D42F",
"/. c #A5A7C186DF2B",
"(. c #AA42C137DD53",
"). c #B1F8C8E7D677",
"_. c #B183C7AFDDA3",
"`. c #B702CA1CDFF0",
"'. c #BDF4CDF7DABA",
"]. c #B886D63DD2F3",
"[. c #BC6FD9F6D44E",
"{. c #B74ED064DAD6",
"}. c #BD16E173C522",
"|. c #A48AC193E0CC",
" X c #AAFEC621E29E",
".X c #AF0BC952E462",
"XX c #B328C769E15E",
"oX c #B421CBB9E51F",
"OX c #B9E9CE43E599",
"+X c #BF5DD219E7A8",
"@X c #BD1ED22CE91C",
"#X c #C547C748C1CB",
"$X c #C74BC994C43A",
"%X c #CA42CC13C695",
"&X c #CD2DCF2ACA15",
"*X c #CDF0D1C4CC4D",
"=X c #D1E7D385CEB7",
"-X c #C875CECAD408",
";X c #C2A9D02EDF37",
":X c #C05CDB62D822",
">X c #C451D2FCDF8C",
",X c #D04BD723DEEF",
"<X c #C3ADDD85DB9F",
"1X c #D4B9D64DD221",
"2X c #D7DFD977D4BC",
"3X c #D9EBDB15D684",
"4X c #D3B1D8D2DD5B",
"5X c #DD2BDE60DA7F",
"6X c #C5A3E59ACD14",
"7X c #C9CAE739CFD9",
"8X c #CE15E90DD49E",
"9X c #D16BEAABD641",
"0X c #DFD4E116DD51",
"qX c #D625ECA2DBF8",
"wX c #DCFEF14FDFA4",
"eX c #E1A4E299DEE3",
"rX c #C479D483E311",
"tX c #C9C9D6B4E645",
"yX c #C5E4DA43E779",
"uX c #CC41D8F7E778",
"iX c #C41ED5D9EA26",
"pX c #C66BD8BBEB5A",
"aX c #CEEFDBABEB10",
"sX c #D89CDD37E1CB",
"dX c #D379DF3DED6D",
"fX c #CE3AE284E342",
"gX c #DDEDE3E4E751",
"hX c #D5FBE9D8E31E",
"jX c #D57AE2FFEE0B",
"kX c #DAB3E514EFCA",
"lX c #D64FE2C4F14B",
"zX c #DBF6E6AFF205",
"xX c #DEE6E97EF447",
"cX c #E4F0E5CDE2B3",
"vX c #E7D3E8AEE5C4",
"bX c #E980EA1FE754",
"nX c #E0C4E649EB65",
"mX c #E6ACEB03EEF1",
"MX c #EC2CED49EBAE",
"NX c #E235F2A7E51A",
"BX c #E730F515E9A1",
"VX c #EDEAF3DBEE51",
"CX c #F15EF192EF2A",
"ZX c #E432EB90F43F",
"AX c #EA51EEEFF3E5",
"SX c #EDD8F2CEF630",
"DX c #EFCFF8CEF194",
"FX c #EDF7F34FF91B",
"GX c #F4DCF572F45E",
"HX c #F60BFB5AF737",
"JX c #F8DAF8C7F746",
"KX c #F283F649FA83",
"LX c #F690F9D9FBAF",
"PX c #FEEFFF46FF63",
"IX c None",
/* pixels */
"IXIXIXIXIXIXIXIXIXIXIXIXIXIXIXIXIXIXIXIXIXIXIXIXIXIXIXIXIXIXIXIXIXIXIXIXIXIXIXIXIXIXIXIXIXIXIXIX",
"IXIXIXIXIXIXIXIXIXIXIXIXIXIXIXIXIXIXIXIXIXIXIXIXIXIXIXIXIXIXIXIXIXIXIXIXIXIXIXIXIXIXIXIXIXIXIXIX",
"IXIXIXIXIXeX%XIX0X=XIXeX2XIX5X5XIX3X0XIX1X0XIX&XeXIXIXeX=XIX0X1XIX5X3XIX2X3XIX=X5XIX=XeXIXIXIXIX",
"IXIXIX%XvXJXcXcXJXMXeXJXGX0XJXJX5XGXJXeXVXJXcXbXLXbXcXPXMXeXPXCXeXJXGXeXGXGXeXCXJXcXbXPXcXIXIXIX",
"IXIXIX&XGXPXPXKXdXtXtXtXtXtXtXtXtXtXtXtXaXaXaXaXaXaXaXaXaXaXaXaXaXaXaXaXaXaXaXaXdXFXPXPXMX#XIXIX",
"IXIXIXIX2XJXkXo.l l l l l l l l l l l l l l l l l l l l l l l l l l l l l l l l l ^ aXGX=XIXIXIX",
"IXIXIX$XcXKX$.k { X.X.X.X.X.X.X.X.X.X.X.X.X.X.X.X.X.X.X.X.X.X. .{ {  . . . . . .{ k ^ SXeXIXIXIX",
"IXIXIX*XGXFXU _ *.#.#.#.#.#.#.#.#.#.#.#.#.#.#.#.#.#.#.#.#.#.*...$.&...X.#.#.#.#.#.{ U dXMX#XIXIX",
"IXIXIXIX3XmXl _ *.#.#.#.#.#.#.#.#.#.#.#.#.#.#.#.#.#.#.#.#.#.*.{ S.xXXX+.X.#.#.#.#...l >X2XIXIXIX",
"IXIXIX#XeXAXl _ *.#.#.#.#.#.#.#.#.#.#.#.#.#.#.#.#.#.#.#.#.#.#.X.c.SXPXdX&.X.X.X.%...l tX0XIXIXIX",
"IXIXIX*XGXFXl _ *.#.#.#.#.#.#.#.#.#.#.#.#.#.#.#.#.#.#.#.#.#.#.#.{ OXPXPXaX| | $.X...l aXCX#XIXIX",
"IXIXIXIX3XmXl _ *.#.#.#.#.#.#.#.#.#.#.#.#.#.#.#.#.#.#.#.#.#.#.#.X.&.AXPXPXoX/.pX$.{ l >X2XIXIXIX",
"IXIXIXIX5XAXl ` *.#.#.#.#.#.#.#.#.#.#.#.#.%.%.%.%.%.%.%.%.%.%.%.#.X.+XPXPXFXoXKX+X{ l tX5XIXIXIX",
"IXIXIX&XJXFXl ` *.*.*.*.*.*.*.*.*.*.*.*.*.*.*.*.*.*.*.*.*.*.*.*.=.X.V.KXPXPXiXxXFX&.l aXGX#XIXIX",
"IXIXIXIX5XAXl { =.=.=.=.=.=.=.=.=.=.=.=.=.=.=.=.=.=.=.=.=.=.=.=.=.=.&.zXPXPXKXAXPX(.l ;X2XIXIXIX",
"IXIXIXIX5XAXl } b.b.b.b.b.b.b.b.b.b.b.b.b.b.b.b.b.b.b.b.b.b.b.b.b.b.| XXPXPXPXPXPXiXU rX5XIXIXIX",
"IXIXIX&XJXFXl } b.b.b.b.b.b.b.b.b.b.b.b.b.b.b.b.b.b.b.b.b.b.b.b.b.n.&.G.LXPXPXPXPXjXY aXGX#XIXIX",
"IXIXIXIX3XAXl | V.n.n.n.n.n.n.n.n.n.n.n.n.n.n.n.n.n.n.n.n.n.n.n.n.V.n.n.FXPXPXPXPXZXT rX3XIXIXIX",
"IXIXIXIX1XAXl +.C.C.C.C.C.C.C.C.C.C.C.C.C.C.C.C.C.C.C.C.C.C.V.n.n.n.n.+.lXPXPXPXPXZXT rX3XIXIXIX",
"IXIXIX%XJXFXl $.D.D.D.D.D.D.D.D.D.D.D.D.D.D.D.D.D.D.D.Z.M.v.v.u.u.s.s.' pXPXPXPXPXZXT aXGX#XIXIX",
"IXIXIX2.3XAXl $.G.G.G.G.G.G.G.G.G.G.G.G.G.G.G.G.G.Z.M.m.s.a.e.w.e.i.i.] iXPXPXPXPXZXT tX3XIXIXIX",
"IXIXIXIX&XmXU &.H.H.H.H.H.H.H.H.H.H.H.H.H.H.H.F.M.m.g.i.q.J J L L K K D +XPXPXPXPXZXT rX=XIXIXIX",
"IXIXIX$XGXFXl &.R.R.R.H.H.H.H.R.R.R.R.R.H.H.B.m.g.p.q.L A A F S S S B C iXPXPXPXPXZXT aXCX8.IXIX",
"IXIXIX2.5XAXU j.|.|.|.|.|.|.|.|.|.|.|./.S.B.N.d.q.P K m m B N M b b b Z lXPXPXPXPXZXT tX3XIXIXIX",
"IXIXIXIX$XmXU j. X X X X X X X X X X XR.B.N.d.q.G n x x b b h f f f d u.LXPXPXPXPXZXT >X%XIXIXIX",
"IXIXIX#XGXSXU l..X.X.X.X.X.X.X.X.X XE.P.N.f.r.P x % 8 g f f a p y e z OXPXPXPXPXPXZXT aXCX5.IXIX",
"IXIXIX3.cXAXU n.oXoXoXoXoXoXoXoXoX(.Y.L.f.p.P H s @ < y y 9 3 1 1 5 t.FXPXPXPXPXPXZXT tX5XIXIXIX",
"IXIXIXIX$XmXY n.OXoXOXOXOXOXOXOXoXT.P.h.p.P H n y 2 > = & < > = , E kXPXPXPXPXPXPXZXT >X#XIXIXIX",
"IXIXIX0.VXSXU Z.@X@X@X@X@XOXR.n.k.y.d.f.r.H f 9 4 2 o . $ & * - R jXPXPXPXPXPXPXPXZXY uXMX4.IXIX",
"IXIXIX6.vXAXY Z.iX+X+X+XXXn.Z.OXpXXXM.[ F x ; % > < % X $ * u ( jXPXPXPXPXPXPXPXPXZXT uXeX1.IXIX",
"IXIXIXIX$XmXY F.pXiXiXoXl.OXKXPXPXPXLXaXO.e # o < 9 <   $ u x.ZXPXPXPXPXPXPXPXPXPXZXT >X#XIXIXIX",
"IXIXIX0.MXSXY A.aXpXiXM.`.sXSXPXPXPXPXPXjXV < 4 q q 7 * i _.KXPXPXPXPXPXPXPXPXPXPXZXT uXbX3.IXIX",
"IXIXIX0.MXSXY S.aXaX(.S.!.: >.LXPXPXgXK.MXA.r y q 7 6 W rXPXPXPXPXPXHXPXPXPXPXPXPXZXY tXvX3.IXIX",
"IXIXIXIX$XmXY S.lXaXF.dX*X+ I LXPXLXI O 5.>Xz y q w ( jXPXPXPXPXHXDXLXPXPXPXPXLXSXrXU '.$XIXIXIX",
"IXIXIX0.bXSXU l.jXiXF.ZXPXmXkXnXgXKXJ.-.*X<Xc q 0 / zXPXPXPXPXDXBXLXPXPXPXPXPXyX^.W.U tXvX4.IXIX",
"IXIXIX$XVXSXT +.(._.A.LXPXPXnX:.;.,XLXHXBX[.c q c uXPXPXPXPXBXNXHXPXPXPXPXPXPXSXZX{.U uXMX7.IXIX",
"IXIXIXIX&XmXQ U.U.&.E.PXPXPXPX4X-XLXPXDXNX].c t A.PXPXPXPXNXqXHXPXPXPXPXPXPXPXPXPXZXT >X%XIXIXIX",
"IXIXIX#XvXAXT ).NX^.rXPXPXPXPXPXPXPXPXVXNX].c j uXPXPXPXDX6XDXPXPXPXPXPXPXPXPXPXPXdXY uXvXIXIXIX",
"IXIXIX&XGXSXT ).NXqXjXPXPXPXPXPXPXPXPXDXNX:Xv ~ FXPXPXPXqX9.HXPXPXPXPXPXPXPXPXPXFXiXY aXMX0.IXIX",
"IXIXIXIX=XmXT ~.wX8XfXLXPXPXPXPXPXPXPXHXVXhX( @.LXPXPXPX8X}.HXPXPXPXPXPXPXPXLXZXZXxXT >X=XIXIXIX",
"IXIXIX$XvXAXT Q.qX8X<XFXPXPXPXPXPXPXPXPXHXDX>XZ.KXPXPXPXBXVXPXPXPXPXPXLXFXZXZXFXPXZXT tXvXIXIXIX",
"IXIXIX&XGXKX! z.9X7X[.SXPXPXPXPXPXPXPXPXPXPXLXkXAXPXPXPXPXPXPXPXPXxXzXZXFXKXPXPXPXtXQ kXCX#XIXIX",
"IXIXIXIX1XGXA.Y ,.<.) A.E.E.E.E.E.E.E.E.E.E.E.E.S.E.E.E.E.E.E.E.E.U.U.U.E.(.E.E.I.! l.GX*XIXIXIX",
"IXIXIXIXcXJXKXE.@.@.@.@.@.@.@.@.@.@.@.@.@.@.@.@.@.@.@.@.@.@.@.@.@.@.@.@.@.@.@.@.@.I.AXLXcXIXIXIX",
"IXIXIX&XGXPXJXJXLXSXmXFXSXmXSXSXmXSXFXmXAXKXmXAXKXAXmXKXAXmXKXSXmXFXSXmXSXFXmXAXKXGXJXPXVX#XIXIX",
"IXIXIXIX1XbX1X&XvX5X%XvXeX#XcXcX0.5XvX0.1XbX$X&XbX&X#XMX1X8.bX3X8.cXeX0.0XcX&X3XvX&X1XbX*XIXIXIX",
"IXIXIXIXIXIXIXIXIXIXIXIXIXIXIXIXIXIXIXIXIX7.IXIX7.IXIX7.IXIXIXIXIXIXIXIXIXIXIXIXIXIXIXIXIXIXIXIX",
"IXIXIXIXIXIXIXIXIXIXIXIXIXIXIXIXIXIXIXIXIXIXIXIXIXIXIXIXIXIXIXIXIXIXIXIXIXIXIXIXIXIXIXIXIXIXIXIX"
};
